<svg width="287" height="24" viewBox="0 0 287 24" fill="none" xmlns="http://www.w3.org/2000/svg">
<path d="M2.35945 6.278V9.54H5.91545V10.59H2.35945V13.95H6.33545V15H1.08545V5.228H6.33545V6.278H2.35945ZM12.0012 7.188C12.9345 7.188 13.6905 7.47267 14.2692 8.042C14.8478 8.602 15.1372 9.414 15.1372 10.478V15H13.8772V10.66C13.8772 9.89467 13.6858 9.31133 13.3032 8.91C12.9205 8.49933 12.3978 8.294 11.7352 8.294C11.0632 8.294 10.5265 8.504 10.1252 8.924C9.73318 9.344 9.53718 9.95533 9.53718 10.758V15H8.26318V7.328H9.53718V8.42C9.78918 8.028 10.1298 7.72467 10.5592 7.51C10.9978 7.29533 11.4785 7.188 12.0012 7.188ZM18.7723 8.378V12.9C18.7723 13.2733 18.8516 13.5393 19.0103 13.698C19.1689 13.8473 19.4443 13.922 19.8363 13.922H20.7743V15H19.6263C18.9169 15 18.3849 14.8367 18.0303 14.51C17.6756 14.1833 17.4983 13.6467 17.4983 12.9V8.378H16.5043V7.328H17.4983V5.396H18.7723V7.328H20.7743V8.378H18.7723ZM29.3179 10.87C29.3179 11.1127 29.3039 11.3693 29.2759 11.64H23.1439C23.1905 12.396 23.4472 12.9887 23.9139 13.418C24.3899 13.838 24.9639 14.048 25.6359 14.048C26.1865 14.048 26.6439 13.922 27.0079 13.67C27.3812 13.4087 27.6425 13.0633 27.7919 12.634H29.1639C28.9585 13.3713 28.5479 13.9733 27.9319 14.44C27.3159 14.8973 26.5505 15.126 25.6359 15.126C24.9079 15.126 24.2545 14.9627 23.6759 14.636C23.1065 14.3093 22.6585 13.8473 22.3319 13.25C22.0052 12.6433 21.8419 11.9433 21.8419 11.15C21.8419 10.3567 22.0005 9.66133 22.3179 9.064C22.6352 8.46667 23.0785 8.00933 23.6479 7.692C24.2265 7.36533 24.8892 7.202 25.6359 7.202C26.3639 7.202 27.0079 7.36067 27.5679 7.678C28.1279 7.99533 28.5572 8.434 28.8559 8.994C29.1639 9.54467 29.3179 10.17 29.3179 10.87ZM28.0019 10.604C28.0019 10.1187 27.8945 9.70333 27.6799 9.358C27.4652 9.00333 27.1712 8.73733 26.7979 8.56C26.4339 8.37333 26.0279 8.28 25.5799 8.28C24.9359 8.28 24.3852 8.48533 23.9279 8.896C23.4799 9.30667 23.2232 9.876 23.1579 10.604H28.0019ZM32.2735 8.574C32.4975 8.13533 32.8148 7.79467 33.2255 7.552C33.6455 7.30933 34.1542 7.188 34.7515 7.188V8.504H34.4155C32.9875 8.504 32.2735 9.27867 32.2735 10.828V15H30.9995V7.328H32.2735V8.574ZM46.7866 5.242L43.6086 11.318V15H42.3346V11.318L39.1426 5.242H40.5566L42.9646 10.184L45.3726 5.242H46.7866ZM51.4764 15.126C50.7577 15.126 50.1044 14.9627 49.5164 14.636C48.9377 14.3093 48.4804 13.8473 48.1444 13.25C47.8177 12.6433 47.6544 11.9433 47.6544 11.15C47.6544 10.366 47.8224 9.67533 48.1584 9.078C48.5037 8.47133 48.9704 8.00933 49.5584 7.692C50.1464 7.36533 50.8044 7.202 51.5324 7.202C52.2604 7.202 52.9184 7.36533 53.5064 7.692C54.0944 8.00933 54.5564 8.46667 54.8924 9.064C55.2377 9.66133 55.4104 10.3567 55.4104 11.15C55.4104 11.9433 55.233 12.6433 54.8784 13.25C54.533 13.8473 54.0617 14.3093 53.4644 14.636C52.867 14.9627 52.2044 15.126 51.4764 15.126ZM51.4764 14.006C51.9337 14.006 52.363 13.8987 52.7644 13.684C53.1657 13.4693 53.4877 13.1473 53.7304 12.718C53.9824 12.2887 54.1084 11.766 54.1084 11.15C54.1084 10.534 53.987 10.0113 53.7444 9.582C53.5017 9.15267 53.1844 8.83533 52.7924 8.63C52.4004 8.41533 51.9757 8.308 51.5184 8.308C51.0517 8.308 50.6224 8.41533 50.2304 8.63C49.8477 8.83533 49.5397 9.15267 49.3064 9.582C49.073 10.0113 48.9564 10.534 48.9564 11.15C48.9564 11.7753 49.0684 12.3027 49.2924 12.732C49.5257 13.1613 49.8337 13.4833 50.2164 13.698C50.599 13.9033 51.019 14.006 51.4764 14.006ZM63.8894 7.328V15H62.6154V13.866C62.3728 14.258 62.0321 14.566 61.5934 14.79C61.1641 15.0047 60.6881 15.112 60.1654 15.112C59.5681 15.112 59.0314 14.9907 58.5554 14.748C58.0794 14.496 57.7014 14.1227 57.4214 13.628C57.1508 13.1333 57.0154 12.5313 57.0154 11.822V7.328H58.2754V11.654C58.2754 12.41 58.4668 12.9933 58.8494 13.404C59.2321 13.8053 59.7548 14.006 60.4174 14.006C61.0988 14.006 61.6354 13.796 62.0274 13.376C62.4194 12.956 62.6154 12.3447 62.6154 11.542V7.328H63.8894ZM67.3145 8.574C67.5385 8.13533 67.8559 7.79467 68.2665 7.552C68.6865 7.30933 69.1952 7.188 69.7925 7.188V8.504H69.4565C68.0285 8.504 67.3145 9.27867 67.3145 10.828V15H66.0405V7.328H67.3145V8.574ZM76.2696 6.278V9.54H79.8256V10.59H76.2696V13.95H80.2456V15H74.9956V5.228H80.2456V6.278H76.2696ZM91.3993 7.188C91.9967 7.188 92.5287 7.314 92.9953 7.566C93.462 7.80867 93.8307 8.17733 94.1013 8.672C94.372 9.16667 94.5073 9.76867 94.5073 10.478V15H93.2473V10.66C93.2473 9.89467 93.056 9.31133 92.6733 8.91C92.3 8.49933 91.7913 8.294 91.1473 8.294C90.4847 8.294 89.9573 8.50867 89.5653 8.938C89.1733 9.358 88.9773 9.96933 88.9773 10.772V15H87.7173V10.66C87.7173 9.89467 87.526 9.31133 87.1433 8.91C86.77 8.49933 86.2613 8.294 85.6173 8.294C84.9547 8.294 84.4273 8.50867 84.0353 8.938C83.6433 9.358 83.4473 9.96933 83.4473 10.772V15H82.1733V7.328H83.4473V8.434C83.6993 8.03267 84.0353 7.72467 84.4553 7.51C84.8847 7.29533 85.356 7.188 85.8693 7.188C86.5133 7.188 87.0827 7.33267 87.5773 7.622C88.072 7.91133 88.4407 8.336 88.6833 8.896C88.898 8.35467 89.2527 7.93467 89.7473 7.636C90.242 7.33733 90.7927 7.188 91.3993 7.188ZM96.1212 11.136C96.1212 10.352 96.2798 9.666 96.5972 9.078C96.9145 8.48067 97.3485 8.01867 97.8992 7.692C98.4592 7.36533 99.0798 7.202 99.7612 7.202C100.433 7.202 101.016 7.34667 101.511 7.636C102.006 7.92533 102.374 8.28933 102.617 8.728V7.328H103.905V15H102.617V13.572C102.365 14.02 101.987 14.3933 101.483 14.692C100.988 14.9813 100.41 15.126 99.7472 15.126C99.0658 15.126 98.4498 14.958 97.8992 14.622C97.3485 14.286 96.9145 13.8147 96.5972 13.208C96.2798 12.6013 96.1212 11.9107 96.1212 11.136ZM102.617 11.15C102.617 10.5713 102.5 10.0673 102.267 9.638C102.034 9.20867 101.716 8.882 101.315 8.658C100.923 8.42467 100.489 8.308 100.013 8.308C99.5372 8.308 99.1032 8.42 98.7112 8.644C98.3192 8.868 98.0065 9.19467 97.7732 9.624C97.5398 10.0533 97.4232 10.5573 97.4232 11.136C97.4232 11.724 97.5398 12.2373 97.7732 12.676C98.0065 13.1053 98.3192 13.4367 98.7112 13.67C99.1032 13.894 99.5372 14.006 100.013 14.006C100.489 14.006 100.923 13.894 101.315 13.67C101.716 13.4367 102.034 13.1053 102.267 12.676C102.5 12.2373 102.617 11.7287 102.617 11.15ZM106.716 6.082C106.473 6.082 106.268 5.998 106.1 5.83C105.932 5.662 105.848 5.45667 105.848 5.214C105.848 4.97133 105.932 4.766 106.1 4.598C106.268 4.43 106.473 4.346 106.716 4.346C106.949 4.346 107.145 4.43 107.304 4.598C107.472 4.766 107.556 4.97133 107.556 5.214C107.556 5.45667 107.472 5.662 107.304 5.83C107.145 5.998 106.949 6.082 106.716 6.082ZM107.332 7.328V15H106.058V7.328H107.332ZM110.777 4.64V15H109.503V4.64H110.777ZM122.449 12.83H118.193L117.409 15H116.065L119.593 5.298H121.063L124.577 15H123.233L122.449 12.83ZM122.085 11.794L120.321 6.866L118.557 11.794H122.085ZM125.639 11.136C125.639 10.352 125.797 9.666 126.115 9.078C126.432 8.48067 126.866 8.01867 127.417 7.692C127.977 7.36533 128.602 7.202 129.293 7.202C129.89 7.202 130.445 7.342 130.959 7.622C131.472 7.89267 131.864 8.252 132.135 8.7V4.64H133.423V15H132.135V13.558C131.883 14.0153 131.509 14.3933 131.015 14.692C130.52 14.9813 129.941 15.126 129.279 15.126C128.597 15.126 127.977 14.958 127.417 14.622C126.866 14.286 126.432 13.8147 126.115 13.208C125.797 12.6013 125.639 11.9107 125.639 11.136ZM132.135 11.15C132.135 10.5713 132.018 10.0673 131.785 9.638C131.551 9.20867 131.234 8.882 130.833 8.658C130.441 8.42467 130.007 8.308 129.531 8.308C129.055 8.308 128.621 8.42 128.229 8.644C127.837 8.868 127.524 9.19467 127.291 9.624C127.057 10.0533 126.941 10.5573 126.941 11.136C126.941 11.724 127.057 12.2373 127.291 12.676C127.524 13.1053 127.837 13.4367 128.229 13.67C128.621 13.894 129.055 14.006 129.531 14.006C130.007 14.006 130.441 13.894 130.833 13.67C131.234 13.4367 131.551 13.1053 131.785 12.676C132.018 12.2373 132.135 11.7287 132.135 11.15ZM135.1 11.136C135.1 10.352 135.258 9.666 135.576 9.078C135.893 8.48067 136.327 8.01867 136.878 7.692C137.438 7.36533 138.063 7.202 138.754 7.202C139.351 7.202 139.906 7.342 140.42 7.622C140.933 7.89267 141.325 8.252 141.596 8.7V4.64H142.884V15H141.596V13.558C141.344 14.0153 140.97 14.3933 140.476 14.692C139.981 14.9813 139.402 15.126 138.74 15.126C138.058 15.126 137.438 14.958 136.878 14.622C136.327 14.286 135.893 13.8147 135.576 13.208C135.258 12.6013 135.1 11.9107 135.1 11.136ZM141.596 11.15C141.596 10.5713 141.479 10.0673 141.246 9.638C141.012 9.20867 140.695 8.882 140.294 8.658C139.902 8.42467 139.468 8.308 138.992 8.308C138.516 8.308 138.082 8.42 137.69 8.644C137.298 8.868 136.985 9.19467 136.752 9.624C136.518 10.0533 136.402 10.5573 136.402 11.136C136.402 11.724 136.518 12.2373 136.752 12.676C136.985 13.1053 137.298 13.4367 137.69 13.67C138.082 13.894 138.516 14.006 138.992 14.006C139.468 14.006 139.902 13.894 140.294 13.67C140.695 13.4367 141.012 13.1053 141.246 12.676C141.479 12.2373 141.596 11.7287 141.596 11.15ZM146.311 8.574C146.535 8.13533 146.852 7.79467 147.263 7.552C147.683 7.30933 148.191 7.188 148.789 7.188V8.504H148.453C147.025 8.504 146.311 9.27867 146.311 10.828V15H145.037V7.328H146.311V8.574ZM157.259 10.87C157.259 11.1127 157.245 11.3693 157.217 11.64H151.085C151.132 12.396 151.389 12.9887 151.855 13.418C152.331 13.838 152.905 14.048 153.577 14.048C154.128 14.048 154.585 13.922 154.949 13.67C155.323 13.4087 155.584 13.0633 155.733 12.634H157.105C156.9 13.3713 156.489 13.9733 155.873 14.44C155.257 14.8973 154.492 15.126 153.577 15.126C152.849 15.126 152.196 14.9627 151.617 14.636C151.048 14.3093 150.6 13.8473 150.273 13.25C149.947 12.6433 149.783 11.9433 149.783 11.15C149.783 10.3567 149.942 9.66133 150.259 9.064C150.577 8.46667 151.02 8.00933 151.589 7.692C152.168 7.36533 152.831 7.202 153.577 7.202C154.305 7.202 154.949 7.36067 155.509 7.678C156.069 7.99533 156.499 8.434 156.797 8.994C157.105 9.54467 157.259 10.17 157.259 10.87ZM155.943 10.604C155.943 10.1187 155.836 9.70333 155.621 9.358C155.407 9.00333 155.113 8.73733 154.739 8.56C154.375 8.37333 153.969 8.28 153.521 8.28C152.877 8.28 152.327 8.48533 151.869 8.896C151.421 9.30667 151.165 9.876 151.099 10.604H155.943ZM161.657 15.126C161.069 15.126 160.542 15.028 160.075 14.832C159.608 14.6267 159.24 14.3467 158.969 13.992C158.698 13.628 158.549 13.2127 158.521 12.746H159.837C159.874 13.1287 160.052 13.4413 160.369 13.684C160.696 13.9267 161.12 14.048 161.643 14.048C162.128 14.048 162.511 13.9407 162.791 13.726C163.071 13.5113 163.211 13.2407 163.211 12.914C163.211 12.578 163.062 12.3307 162.763 12.172C162.464 12.004 162.002 11.8407 161.377 11.682C160.808 11.5327 160.341 11.3833 159.977 11.234C159.622 11.0753 159.314 10.8467 159.053 10.548C158.801 10.24 158.675 9.83867 158.675 9.344C158.675 8.952 158.792 8.59267 159.025 8.266C159.258 7.93933 159.59 7.68267 160.019 7.496C160.448 7.3 160.938 7.202 161.489 7.202C162.338 7.202 163.024 7.41667 163.547 7.846C164.07 8.27533 164.35 8.86333 164.387 9.61H163.113C163.085 9.20867 162.922 8.88667 162.623 8.644C162.334 8.40133 161.942 8.28 161.447 8.28C160.99 8.28 160.626 8.378 160.355 8.574C160.084 8.77 159.949 9.02667 159.949 9.344C159.949 9.596 160.028 9.806 160.187 9.974C160.355 10.1327 160.56 10.2633 160.803 10.366C161.055 10.4593 161.4 10.5667 161.839 10.688C162.39 10.8373 162.838 10.9867 163.183 11.136C163.528 11.276 163.822 11.4907 164.065 11.78C164.317 12.0693 164.448 12.4473 164.457 12.914C164.457 13.334 164.34 13.712 164.107 14.048C163.874 14.384 163.542 14.65 163.113 14.846C162.693 15.0327 162.208 15.126 161.657 15.126ZM168.971 15.126C168.383 15.126 167.856 15.028 167.389 14.832C166.923 14.6267 166.554 14.3467 166.283 13.992C166.013 13.628 165.863 13.2127 165.835 12.746H167.151C167.189 13.1287 167.366 13.4413 167.683 13.684C168.01 13.9267 168.435 14.048 168.957 14.048C169.443 14.048 169.825 13.9407 170.105 13.726C170.385 13.5113 170.525 13.2407 170.525 12.914C170.525 12.578 170.376 12.3307 170.077 12.172C169.779 12.004 169.317 11.8407 168.691 11.682C168.122 11.5327 167.655 11.3833 167.291 11.234C166.937 11.0753 166.629 10.8467 166.367 10.548C166.115 10.24 165.989 9.83867 165.989 9.344C165.989 8.952 166.106 8.59267 166.339 8.266C166.573 7.93933 166.904 7.68267 167.333 7.496C167.763 7.3 168.253 7.202 168.803 7.202C169.653 7.202 170.339 7.41667 170.861 7.846C171.384 8.27533 171.664 8.86333 171.701 9.61H170.427C170.399 9.20867 170.236 8.88667 169.937 8.644C169.648 8.40133 169.256 8.28 168.761 8.28C168.304 8.28 167.94 8.378 167.669 8.574C167.399 8.77 167.263 9.02667 167.263 9.344C167.263 9.596 167.343 9.806 167.501 9.974C167.669 10.1327 167.875 10.2633 168.117 10.366C168.369 10.4593 168.715 10.5667 169.153 10.688C169.704 10.8373 170.152 10.9867 170.497 11.136C170.843 11.276 171.137 11.4907 171.379 11.78C171.631 12.0693 171.762 12.4473 171.771 12.914C171.771 13.334 171.655 13.712 171.421 14.048C171.188 14.384 170.857 14.65 170.427 14.846C170.007 15.0327 169.522 15.126 168.971 15.126Z" fill="#9F9F9F"/>
<line x1="0.00744629" y1="23.5" x2="200.007" y2="23.5" stroke="black"/>
<path d="M215.263 15.098C214.61 15.098 214.022 14.986 213.499 14.762C212.977 14.5287 212.566 14.202 212.267 13.782C211.969 13.362 211.819 12.872 211.819 12.312H213.527C213.565 12.732 213.728 13.0773 214.017 13.348C214.316 13.6187 214.731 13.754 215.263 13.754C215.814 13.754 216.243 13.6233 216.551 13.362C216.859 13.0913 217.013 12.746 217.013 12.326C217.013 11.9993 216.915 11.7333 216.719 11.528C216.533 11.3227 216.295 11.164 216.005 11.052C215.725 10.94 215.333 10.8187 214.829 10.688C214.195 10.52 213.677 10.352 213.275 10.184C212.883 10.0067 212.547 9.736 212.267 9.372C211.987 9.008 211.847 8.52267 211.847 7.916C211.847 7.356 211.987 6.866 212.267 6.446C212.547 6.026 212.939 5.704 213.443 5.48C213.947 5.256 214.531 5.144 215.193 5.144C216.136 5.144 216.906 5.382 217.503 5.858C218.11 6.32467 218.446 6.96867 218.511 7.79H216.747C216.719 7.43533 216.551 7.132 216.243 6.88C215.935 6.628 215.529 6.502 215.025 6.502C214.568 6.502 214.195 6.61867 213.905 6.852C213.616 7.08533 213.471 7.42133 213.471 7.86C213.471 8.15867 213.56 8.406 213.737 8.602C213.924 8.78867 214.157 8.938 214.437 9.05C214.717 9.162 215.1 9.28333 215.585 9.414C216.229 9.59133 216.752 9.76867 217.153 9.946C217.564 10.1233 217.909 10.3987 218.189 10.772C218.479 11.136 218.623 11.626 218.623 12.242C218.623 12.7367 218.488 13.2033 218.217 13.642C217.956 14.0807 217.569 14.4353 217.055 14.706C216.551 14.9673 215.954 15.098 215.263 15.098ZM222.089 5.27V11.472C222.089 12.2093 222.28 12.7647 222.663 13.138C223.055 13.5113 223.596 13.698 224.287 13.698C224.987 13.698 225.528 13.5113 225.911 13.138C226.303 12.7647 226.499 12.2093 226.499 11.472V5.27H228.095V11.444C228.095 12.2373 227.922 12.9093 227.577 13.46C227.231 14.0107 226.769 14.4213 226.191 14.692C225.612 14.9627 224.973 15.098 224.273 15.098C223.573 15.098 222.933 14.9627 222.355 14.692C221.785 14.4213 221.333 14.0107 220.997 13.46C220.661 12.9093 220.493 12.2373 220.493 11.444V5.27H222.089ZM235.381 10.002C235.903 10.0953 236.347 10.3707 236.711 10.828C237.075 11.2853 237.257 11.8033 237.257 12.382C237.257 12.8767 237.126 13.3247 236.865 13.726C236.613 14.118 236.244 14.4307 235.759 14.664C235.273 14.888 234.709 15 234.065 15H230.173V5.27H233.883C234.545 5.27 235.115 5.382 235.591 5.606C236.067 5.83 236.426 6.13333 236.669 6.516C236.911 6.88933 237.033 7.30933 237.033 7.776C237.033 8.336 236.883 8.80267 236.585 9.176C236.286 9.54933 235.885 9.82467 235.381 10.002ZM231.769 9.358H233.743C234.265 9.358 234.671 9.24133 234.961 9.008C235.259 8.76533 235.409 8.42 235.409 7.972C235.409 7.53333 235.259 7.19267 234.961 6.95C234.671 6.698 234.265 6.572 233.743 6.572H231.769V9.358ZM233.925 13.698C234.466 13.698 234.891 13.5673 235.199 13.306C235.507 13.0447 235.661 12.6807 235.661 12.214C235.661 11.738 235.497 11.36 235.171 11.08C234.844 10.8 234.41 10.66 233.869 10.66H231.769V13.698H233.925ZM242.197 15.098C241.544 15.098 240.956 14.986 240.433 14.762C239.91 14.5287 239.5 14.202 239.201 13.782C238.902 13.362 238.753 12.872 238.753 12.312H240.461C240.498 12.732 240.662 13.0773 240.951 13.348C241.25 13.6187 241.665 13.754 242.197 13.754C242.748 13.754 243.177 13.6233 243.485 13.362C243.793 13.0913 243.947 12.746 243.947 12.326C243.947 11.9993 243.849 11.7333 243.653 11.528C243.466 11.3227 243.228 11.164 242.939 11.052C242.659 10.94 242.267 10.8187 241.763 10.688C241.128 10.52 240.61 10.352 240.209 10.184C239.817 10.0067 239.481 9.736 239.201 9.372C238.921 9.008 238.781 8.52267 238.781 7.916C238.781 7.356 238.921 6.866 239.201 6.446C239.481 6.026 239.873 5.704 240.377 5.48C240.881 5.256 241.464 5.144 242.127 5.144C243.07 5.144 243.84 5.382 244.437 5.858C245.044 6.32467 245.38 6.96867 245.445 7.79H243.681C243.653 7.43533 243.485 7.132 243.177 6.88C242.869 6.628 242.463 6.502 241.959 6.502C241.502 6.502 241.128 6.61867 240.839 6.852C240.55 7.08533 240.405 7.42133 240.405 7.86C240.405 8.15867 240.494 8.406 240.671 8.602C240.858 8.78867 241.091 8.938 241.371 9.05C241.651 9.162 242.034 9.28333 242.519 9.414C243.163 9.59133 243.686 9.76867 244.087 9.946C244.498 10.1233 244.843 10.3987 245.123 10.772C245.412 11.136 245.557 11.626 245.557 12.242C245.557 12.7367 245.422 13.2033 245.151 13.642C244.89 14.0807 244.502 14.4353 243.989 14.706C243.485 14.9673 242.888 15.098 242.197 15.098ZM246.908 10.114C246.908 9.162 247.128 8.308 247.566 7.552C248.014 6.796 248.616 6.208 249.372 5.788C250.138 5.35867 250.973 5.144 251.878 5.144C252.914 5.144 253.834 5.40067 254.636 5.914C255.448 6.418 256.036 7.13667 256.4 8.07H254.482C254.23 7.55667 253.88 7.174 253.432 6.922C252.984 6.67 252.466 6.544 251.878 6.544C251.234 6.544 250.66 6.68867 250.156 6.978C249.652 7.26733 249.256 7.68267 248.966 8.224C248.686 8.76533 248.546 9.39533 248.546 10.114C248.546 10.8327 248.686 11.4627 248.966 12.004C249.256 12.5453 249.652 12.9653 250.156 13.264C250.66 13.5533 251.234 13.698 251.878 13.698C252.466 13.698 252.984 13.572 253.432 13.32C253.88 13.068 254.23 12.6853 254.482 12.172H256.4C256.036 13.1053 255.448 13.824 254.636 14.328C253.834 14.832 252.914 15.084 251.878 15.084C250.964 15.084 250.128 14.874 249.372 14.454C248.616 14.0247 248.014 13.432 247.566 12.676C247.128 11.92 246.908 11.066 246.908 10.114ZM263.322 15L261.082 11.108H259.864V15H258.268V5.27H261.628C262.375 5.27 263.005 5.40067 263.518 5.662C264.041 5.92333 264.428 6.27333 264.68 6.712C264.942 7.15067 265.072 7.64067 265.072 8.182C265.072 8.81667 264.886 9.39533 264.512 9.918C264.148 10.4313 263.584 10.7813 262.818 10.968L265.226 15H263.322ZM259.864 9.834H261.628C262.226 9.834 262.674 9.68467 262.972 9.386C263.28 9.08733 263.434 8.686 263.434 8.182C263.434 7.678 263.285 7.286 262.986 7.006C262.688 6.71667 262.235 6.572 261.628 6.572H259.864V9.834ZM268.71 5.27V15H267.114V5.27H268.71ZM276.013 10.002C276.536 10.0953 276.979 10.3707 277.343 10.828C277.707 11.2853 277.889 11.8033 277.889 12.382C277.889 12.8767 277.759 13.3247 277.497 13.726C277.245 14.118 276.877 14.4307 276.391 14.664C275.906 14.888 275.341 15 274.697 15H270.805V5.27H274.515C275.178 5.27 275.747 5.382 276.223 5.606C276.699 5.83 277.059 6.13333 277.301 6.516C277.544 6.88933 277.665 7.30933 277.665 7.776C277.665 8.336 277.516 8.80267 277.217 9.176C276.919 9.54933 276.517 9.82467 276.013 10.002ZM272.401 9.358H274.375C274.898 9.358 275.304 9.24133 275.593 9.008C275.892 8.76533 276.041 8.42 276.041 7.972C276.041 7.53333 275.892 7.19267 275.593 6.95C275.304 6.698 274.898 6.572 274.375 6.572H272.401V9.358ZM274.557 13.698C275.099 13.698 275.523 13.5673 275.831 13.306C276.139 13.0447 276.293 12.6807 276.293 12.214C276.293 11.738 276.13 11.36 275.803 11.08C275.477 10.8 275.043 10.66 274.501 10.66H272.401V13.698H274.557ZM281.22 6.558V9.414H284.58V10.716H281.22V13.698H285V15H279.624V5.256H285V6.558H281.22Z" fill="black"/>
<line x1="211.004" y1="23.5" x2="286.011" y2="23.5" stroke="black"/>
</svg>
