<svg width="393" height="537" viewBox="0 0 393 537" fill="none" xmlns="http://www.w3.org/2000/svg">
<rect width="393" height="537" fill="white"/>
<path d="M77.888 140.624C77.888 138.992 78.264 137.528 79.016 136.232C79.784 134.936 80.816 133.928 82.112 133.208C83.424 132.472 84.856 132.104 86.408 132.104C88.184 132.104 89.76 132.544 91.136 133.424C92.528 134.288 93.536 135.52 94.16 137.12H90.872C90.44 136.24 89.84 135.584 89.072 135.152C88.304 134.72 87.416 134.504 86.408 134.504C85.304 134.504 84.32 134.752 83.456 135.248C82.592 135.744 81.912 136.456 81.416 137.384C80.936 138.312 80.696 139.392 80.696 140.624C80.696 141.856 80.936 142.936 81.416 143.864C81.912 144.792 82.592 145.512 83.456 146.024C84.32 146.52 85.304 146.768 86.408 146.768C87.416 146.768 88.304 146.552 89.072 146.12C89.84 145.688 90.44 145.032 90.872 144.152H94.16C93.536 145.752 92.528 146.984 91.136 147.848C89.76 148.712 88.184 149.144 86.408 149.144C84.84 149.144 83.408 148.784 82.112 148.064C80.816 147.328 79.784 146.312 79.016 145.016C78.264 143.72 77.888 142.256 77.888 140.624ZM96.4505 142.328C96.4505 141 96.7225 139.824 97.2665 138.8C97.8265 137.776 98.5785 136.984 99.5225 136.424C100.483 135.848 101.539 135.56 102.691 135.56C103.731 135.56 104.635 135.768 105.403 136.184C106.187 136.584 106.811 137.088 107.275 137.696V135.776H110.035V149H107.275V147.032C106.811 147.656 106.179 148.176 105.379 148.592C104.579 149.008 103.667 149.216 102.643 149.216C101.507 149.216 100.467 148.928 99.5225 148.352C98.5785 147.76 97.8265 146.944 97.2665 145.904C96.7225 144.848 96.4505 143.656 96.4505 142.328ZM107.275 142.376C107.275 141.464 107.083 140.672 106.699 140C106.331 139.328 105.843 138.816 105.235 138.464C104.627 138.112 103.971 137.936 103.267 137.936C102.563 137.936 101.907 138.112 101.299 138.464C100.691 138.8 100.195 139.304 99.8105 139.976C99.4425 140.632 99.2585 141.416 99.2585 142.328C99.2585 143.24 99.4425 144.04 99.8105 144.728C100.195 145.416 100.691 145.944 101.299 146.312C101.923 146.664 102.579 146.84 103.267 146.84C103.971 146.84 104.627 146.664 105.235 146.312C105.843 145.96 106.331 145.448 106.699 144.776C107.083 144.088 107.275 143.288 107.275 142.376ZM116.82 138.008V145.328C116.82 145.824 116.932 146.184 117.156 146.408C117.396 146.616 117.796 146.72 118.356 146.72H120.036V149H117.876C116.644 149 115.7 148.712 115.044 148.136C114.388 147.56 114.06 146.624 114.06 145.328V138.008H112.5V135.776H114.06V132.488H116.82V135.776H120.036V138.008H116.82ZM134.678 142.064C134.678 142.56 134.646 143.008 134.582 143.408H124.478C124.558 144.464 124.95 145.312 125.654 145.952C126.358 146.592 127.222 146.912 128.246 146.912C129.718 146.912 130.758 146.296 131.366 145.064H134.318C133.918 146.28 133.19 147.28 132.134 148.064C131.094 148.832 129.798 149.216 128.246 149.216C126.982 149.216 125.846 148.936 124.838 148.376C123.846 147.8 123.062 147 122.486 145.976C121.926 144.936 121.646 143.736 121.646 142.376C121.646 141.016 121.918 139.824 122.462 138.8C123.022 137.76 123.798 136.96 124.79 136.4C125.798 135.84 126.95 135.56 128.246 135.56C129.494 135.56 130.606 135.832 131.582 136.376C132.558 136.92 133.318 137.688 133.862 138.68C134.406 139.656 134.678 140.784 134.678 142.064ZM131.822 141.2C131.806 140.192 131.446 139.384 130.742 138.776C130.038 138.168 129.166 137.864 128.126 137.864C127.182 137.864 126.374 138.168 125.702 138.776C125.03 139.368 124.63 140.176 124.502 141.2H131.822ZM142.698 135.56C143.722 135.56 144.626 135.768 145.41 136.184C146.21 136.584 146.834 137.088 147.282 137.696V135.776H150.042V149.216C150.042 150.432 149.786 151.512 149.274 152.456C148.762 153.416 148.018 154.168 147.042 154.712C146.082 155.256 144.93 155.528 143.586 155.528C141.794 155.528 140.306 155.104 139.122 154.256C137.938 153.424 137.266 152.288 137.106 150.848H139.818C140.026 151.536 140.466 152.088 141.138 152.504C141.826 152.936 142.642 153.152 143.586 153.152C144.69 153.152 145.578 152.816 146.25 152.144C146.938 151.472 147.282 150.496 147.282 149.216V147.008C146.818 147.632 146.186 148.16 145.386 148.592C144.602 149.008 143.706 149.216 142.698 149.216C141.546 149.216 140.49 148.928 139.53 148.352C138.586 147.76 137.834 146.944 137.274 145.904C136.73 144.848 136.458 143.656 136.458 142.328C136.458 141 136.73 139.824 137.274 138.8C137.834 137.776 138.586 136.984 139.53 136.424C140.49 135.848 141.546 135.56 142.698 135.56ZM147.282 142.376C147.282 141.464 147.09 140.672 146.706 140C146.338 139.328 145.85 138.816 145.242 138.464C144.634 138.112 143.978 137.936 143.274 137.936C142.57 137.936 141.914 138.112 141.306 138.464C140.698 138.8 140.202 139.304 139.818 139.976C139.45 140.632 139.266 141.416 139.266 142.328C139.266 143.24 139.45 144.04 139.818 144.728C140.202 145.416 140.698 145.944 141.306 146.312C141.93 146.664 142.586 146.84 143.274 146.84C143.978 146.84 144.634 146.664 145.242 146.312C145.85 145.96 146.338 145.448 146.706 144.776C147.09 144.088 147.282 143.288 147.282 142.376ZM159.372 149.216C158.124 149.216 156.996 148.936 155.988 148.376C154.98 147.8 154.188 147 153.612 145.976C153.036 144.936 152.748 143.736 152.748 142.376C152.748 141.032 153.044 139.84 153.636 138.8C154.228 137.76 155.036 136.96 156.06 136.4C157.084 135.84 158.228 135.56 159.492 135.56C160.756 135.56 161.9 135.84 162.924 136.4C163.948 136.96 164.756 137.76 165.348 138.8C165.94 139.84 166.236 141.032 166.236 142.376C166.236 143.72 165.932 144.912 165.324 145.952C164.716 146.992 163.884 147.8 162.828 148.376C161.788 148.936 160.636 149.216 159.372 149.216ZM159.372 146.84C160.076 146.84 160.732 146.672 161.34 146.336C161.964 146 162.468 145.496 162.852 144.824C163.236 144.152 163.428 143.336 163.428 142.376C163.428 141.416 163.244 140.608 162.876 139.952C162.508 139.28 162.02 138.776 161.412 138.44C160.804 138.104 160.148 137.936 159.444 137.936C158.74 137.936 158.084 138.104 157.476 138.44C156.884 138.776 156.412 139.28 156.06 139.952C155.708 140.608 155.532 141.416 155.532 142.376C155.532 143.8 155.892 144.904 156.612 145.688C157.348 146.456 158.268 146.84 159.372 146.84ZM171.677 137.696C172.077 137.024 172.605 136.504 173.261 136.136C173.933 135.752 174.725 135.56 175.637 135.56V138.392H174.941C173.869 138.392 173.053 138.664 172.493 139.208C171.949 139.752 171.677 140.696 171.677 142.04V149H168.941V135.776H171.677V137.696ZM179.544 134.024C179.048 134.024 178.632 133.856 178.296 133.52C177.96 133.184 177.792 132.768 177.792 132.272C177.792 131.776 177.96 131.36 178.296 131.024C178.632 130.688 179.048 130.52 179.544 130.52C180.024 130.52 180.432 130.688 180.768 131.024C181.104 131.36 181.272 131.776 181.272 132.272C181.272 132.768 181.104 133.184 180.768 133.52C180.432 133.856 180.024 134.024 179.544 134.024ZM180.888 135.776V149H178.152V135.776H180.888ZM196.6 142.064C196.6 142.56 196.568 143.008 196.504 143.408H186.4C186.48 144.464 186.872 145.312 187.576 145.952C188.28 146.592 189.144 146.912 190.168 146.912C191.64 146.912 192.68 146.296 193.288 145.064H196.24C195.84 146.28 195.112 147.28 194.056 148.064C193.016 148.832 191.72 149.216 190.168 149.216C188.904 149.216 187.768 148.936 186.76 148.376C185.768 147.8 184.984 147 184.408 145.976C183.848 144.936 183.568 143.736 183.568 142.376C183.568 141.016 183.84 139.824 184.384 138.8C184.944 137.76 185.72 136.96 186.712 136.4C187.72 135.84 188.872 135.56 190.168 135.56C191.416 135.56 192.528 135.832 193.504 136.376C194.48 136.92 195.24 137.688 195.784 138.68C196.328 139.656 196.6 140.784 196.6 142.064ZM193.744 141.2C193.728 140.192 193.368 139.384 192.664 138.776C191.96 138.168 191.088 137.864 190.048 137.864C189.104 137.864 188.296 138.168 187.624 138.776C186.952 139.368 186.552 140.176 186.424 141.2H193.744ZM204.092 149.216C203.052 149.216 202.116 149.032 201.284 148.664C200.468 148.28 199.82 147.768 199.34 147.128C198.86 146.472 198.604 145.744 198.572 144.944H201.404C201.452 145.504 201.716 145.976 202.196 146.36C202.692 146.728 203.308 146.912 204.044 146.912C204.812 146.912 205.404 146.768 205.82 146.48C206.252 146.176 206.468 145.792 206.468 145.328C206.468 144.832 206.228 144.464 205.748 144.224C205.284 143.984 204.54 143.72 203.516 143.432C202.524 143.16 201.716 142.896 201.092 142.64C200.468 142.384 199.924 141.992 199.46 141.464C199.012 140.936 198.788 140.24 198.788 139.376C198.788 138.672 198.996 138.032 199.412 137.456C199.828 136.864 200.42 136.4 201.188 136.064C201.972 135.728 202.868 135.56 203.876 135.56C205.38 135.56 206.588 135.944 207.5 136.712C208.428 137.464 208.924 138.496 208.988 139.808H206.252C206.204 139.216 205.964 138.744 205.532 138.392C205.1 138.04 204.516 137.864 203.78 137.864C203.06 137.864 202.508 138 202.124 138.272C201.74 138.544 201.548 138.904 201.548 139.352C201.548 139.704 201.676 140 201.932 140.24C202.188 140.48 202.5 140.672 202.868 140.816C203.236 140.944 203.78 141.112 204.5 141.32C205.46 141.576 206.244 141.84 206.852 142.112C207.476 142.368 208.012 142.752 208.46 143.264C208.908 143.776 209.14 144.456 209.156 145.304C209.156 146.056 208.948 146.728 208.532 147.32C208.116 147.912 207.524 148.376 206.756 148.712C206.004 149.048 205.116 149.216 204.092 149.216Z" fill="black"/>
<path d="M77.688 204.416C77.688 203.328 77.9333 202.352 78.424 201.488C78.9147 200.613 79.5813 199.931 80.424 199.44C81.2773 198.949 82.2213 198.704 83.256 198.704C84.472 198.704 85.5333 198.997 86.44 199.584C87.3467 200.171 88.008 201.003 88.424 202.08H86.68C86.3707 201.408 85.9227 200.891 85.336 200.528C84.76 200.165 84.0667 199.984 83.256 199.984C82.4773 199.984 81.7787 200.165 81.16 200.528C80.5413 200.891 80.056 201.408 79.704 202.08C79.352 202.741 79.176 203.52 79.176 204.416C79.176 205.301 79.352 206.08 79.704 206.752C80.056 207.413 80.5413 207.925 81.16 208.288C81.7787 208.651 82.4773 208.832 83.256 208.832C84.0667 208.832 84.76 208.656 85.336 208.304C85.9227 207.941 86.3707 207.424 86.68 206.752H88.424C88.008 207.819 87.3467 208.645 86.44 209.232C85.5333 209.808 84.472 210.096 83.256 210.096C82.2213 210.096 81.2773 209.856 80.424 209.376C79.5813 208.885 78.9147 208.208 78.424 207.344C77.9333 206.48 77.688 205.504 77.688 204.416ZM92.0474 202.656C92.3034 202.155 92.666 201.765 93.1354 201.488C93.6154 201.211 94.1967 201.072 94.8794 201.072V202.576H94.4954C92.8634 202.576 92.0474 203.461 92.0474 205.232V210H90.5914V201.232H92.0474V202.656ZM96.0161 205.584C96.0161 204.688 96.1975 203.904 96.5601 203.232C96.9228 202.549 97.4188 202.021 98.0481 201.648C98.6881 201.275 99.3975 201.088 100.176 201.088C100.944 201.088 101.611 201.253 102.176 201.584C102.741 201.915 103.163 202.331 103.44 202.832V201.232H104.912V210H103.44V208.368C103.152 208.88 102.72 209.307 102.144 209.648C101.579 209.979 100.917 210.144 100.16 210.144C99.3815 210.144 98.6775 209.952 98.0481 209.568C97.4188 209.184 96.9228 208.645 96.5601 207.952C96.1975 207.259 96.0161 206.469 96.0161 205.584ZM103.44 205.6C103.44 204.939 103.307 204.363 103.04 203.872C102.773 203.381 102.411 203.008 101.952 202.752C101.504 202.485 101.008 202.352 100.464 202.352C99.9201 202.352 99.4241 202.48 98.9761 202.736C98.5281 202.992 98.1708 203.365 97.9041 203.856C97.6375 204.347 97.5041 204.923 97.5041 205.584C97.5041 206.256 97.6375 206.843 97.9041 207.344C98.1708 207.835 98.5281 208.213 98.9761 208.48C99.4241 208.736 99.9201 208.864 100.464 208.864C101.008 208.864 101.504 208.736 101.952 208.48C102.411 208.213 102.773 207.835 103.04 207.344C103.307 206.843 103.44 206.261 103.44 205.6ZM110.941 202.432H109.101V210H107.645V202.432H106.509V201.232H107.645V200.608C107.645 199.627 107.895 198.912 108.397 198.464C108.909 198.005 109.725 197.776 110.845 197.776V198.992C110.205 198.992 109.751 199.12 109.485 199.376C109.229 199.621 109.101 200.032 109.101 200.608V201.232H110.941V202.432ZM114.414 202.432V207.6C114.414 208.027 114.505 208.331 114.686 208.512C114.868 208.683 115.182 208.768 115.63 208.768H116.702V210H115.39C114.58 210 113.972 209.813 113.566 209.44C113.161 209.067 112.958 208.453 112.958 207.6V202.432H111.822V201.232H112.958V199.024H114.414V201.232H116.702V202.432H114.414ZM121.57 210.144C120.898 210.144 120.296 210.032 119.762 209.808C119.229 209.573 118.808 209.253 118.498 208.848C118.189 208.432 118.018 207.957 117.986 207.424H119.49C119.533 207.861 119.736 208.219 120.098 208.496C120.472 208.773 120.957 208.912 121.554 208.912C122.109 208.912 122.546 208.789 122.866 208.544C123.186 208.299 123.346 207.989 123.346 207.616C123.346 207.232 123.176 206.949 122.834 206.768C122.493 206.576 121.965 206.389 121.25 206.208C120.6 206.037 120.066 205.867 119.65 205.696C119.245 205.515 118.893 205.253 118.594 204.912C118.306 204.56 118.162 204.101 118.162 203.536C118.162 203.088 118.296 202.677 118.562 202.304C118.829 201.931 119.208 201.637 119.698 201.424C120.189 201.2 120.749 201.088 121.378 201.088C122.349 201.088 123.133 201.333 123.73 201.824C124.328 202.315 124.648 202.987 124.69 203.84H123.234C123.202 203.381 123.016 203.013 122.674 202.736C122.344 202.459 121.896 202.32 121.33 202.32C120.808 202.32 120.392 202.432 120.082 202.656C119.773 202.88 119.618 203.173 119.618 203.536C119.618 203.824 119.709 204.064 119.89 204.256C120.082 204.437 120.317 204.587 120.594 204.704C120.882 204.811 121.277 204.933 121.778 205.072C122.408 205.243 122.92 205.413 123.314 205.584C123.709 205.744 124.045 205.989 124.322 206.32C124.61 206.651 124.76 207.083 124.77 207.616C124.77 208.096 124.637 208.528 124.37 208.912C124.104 209.296 123.725 209.6 123.234 209.824C122.754 210.037 122.2 210.144 121.57 210.144Z" fill="#9F9F9F"/>
<path d="M81.704 263.848C82.92 263.848 83.9707 264.077 84.856 264.536C85.752 264.984 86.4347 265.629 86.904 266.472C87.384 267.315 87.624 268.307 87.624 269.448C87.624 270.589 87.384 271.581 86.904 272.424C86.4347 273.256 85.752 273.896 84.856 274.344C83.9707 274.781 82.92 275 81.704 275H78.232V263.848H81.704ZM81.704 273.8C83.144 273.8 84.2427 273.421 85 272.664C85.7573 271.896 86.136 270.824 86.136 269.448C86.136 268.061 85.752 266.979 84.984 266.2C84.2267 265.421 83.1333 265.032 81.704 265.032H79.688V273.8H81.704ZM97.5445 270.28C97.5445 270.557 97.5285 270.851 97.4965 271.16H90.4885C90.5418 272.024 90.8352 272.701 91.3685 273.192C91.9125 273.672 92.5685 273.912 93.3365 273.912C93.9658 273.912 94.4885 273.768 94.9045 273.48C95.3312 273.181 95.6298 272.787 95.8005 272.296H97.3685C97.1338 273.139 96.6645 273.827 95.9605 274.36C95.2565 274.883 94.3818 275.144 93.3365 275.144C92.5045 275.144 91.7578 274.957 91.0965 274.584C90.4458 274.211 89.9338 273.683 89.5605 273C89.1872 272.307 89.0005 271.507 89.0005 270.6C89.0005 269.693 89.1818 268.899 89.5445 268.216C89.9072 267.533 90.4138 267.011 91.0645 266.648C91.7258 266.275 92.4832 266.088 93.3365 266.088C94.1685 266.088 94.9045 266.269 95.5445 266.632C96.1845 266.995 96.6752 267.496 97.0165 268.136C97.3685 268.765 97.5445 269.48 97.5445 270.28ZM96.0405 269.976C96.0405 269.421 95.9178 268.947 95.6725 268.552C95.4272 268.147 95.0912 267.843 94.6645 267.64C94.2485 267.427 93.7845 267.32 93.2725 267.32C92.5365 267.32 91.9072 267.555 91.3845 268.024C90.8725 268.493 90.5792 269.144 90.5045 269.976H96.0405ZM102.57 275.144C101.898 275.144 101.296 275.032 100.762 274.808C100.229 274.573 99.8077 274.253 99.4984 273.848C99.189 273.432 99.0184 272.957 98.9864 272.424H100.49C100.533 272.861 100.736 273.219 101.098 273.496C101.472 273.773 101.957 273.912 102.554 273.912C103.109 273.912 103.546 273.789 103.866 273.544C104.186 273.299 104.346 272.989 104.346 272.616C104.346 272.232 104.176 271.949 103.834 271.768C103.493 271.576 102.965 271.389 102.25 271.208C101.6 271.037 101.066 270.867 100.65 270.696C100.245 270.515 99.893 270.253 99.5944 269.912C99.3064 269.56 99.1624 269.101 99.1624 268.536C99.1624 268.088 99.2957 267.677 99.5624 267.304C99.829 266.931 100.208 266.637 100.698 266.424C101.189 266.2 101.749 266.088 102.378 266.088C103.349 266.088 104.133 266.333 104.73 266.824C105.328 267.315 105.648 267.987 105.69 268.84H104.234C104.202 268.381 104.016 268.013 103.674 267.736C103.344 267.459 102.896 267.32 102.33 267.32C101.808 267.32 101.392 267.432 101.082 267.656C100.773 267.88 100.618 268.173 100.618 268.536C100.618 268.824 100.709 269.064 100.89 269.256C101.082 269.437 101.317 269.587 101.594 269.704C101.882 269.811 102.277 269.933 102.778 270.072C103.408 270.243 103.92 270.413 104.314 270.584C104.709 270.744 105.045 270.989 105.322 271.32C105.61 271.651 105.76 272.083 105.77 272.616C105.77 273.096 105.637 273.528 105.37 273.912C105.104 274.296 104.725 274.6 104.234 274.824C103.754 275.037 103.2 275.144 102.57 275.144ZM108.578 264.808C108.3 264.808 108.066 264.712 107.874 264.52C107.682 264.328 107.586 264.093 107.586 263.816C107.586 263.539 107.682 263.304 107.874 263.112C108.066 262.92 108.3 262.824 108.578 262.824C108.844 262.824 109.068 262.92 109.25 263.112C109.442 263.304 109.538 263.539 109.538 263.816C109.538 264.093 109.442 264.328 109.25 264.52C109.068 264.712 108.844 264.808 108.578 264.808ZM109.282 266.232V275H107.826V266.232H109.282ZM115.379 266.088C116.137 266.088 116.798 266.253 117.363 266.584C117.939 266.915 118.366 267.331 118.643 267.832V266.232H120.115V275.192C120.115 275.992 119.945 276.701 119.603 277.32C119.262 277.949 118.771 278.44 118.131 278.792C117.502 279.144 116.766 279.32 115.923 279.32C114.771 279.32 113.811 279.048 113.043 278.504C112.275 277.96 111.822 277.219 111.683 276.28H113.123C113.283 276.813 113.614 277.24 114.115 277.56C114.617 277.891 115.219 278.056 115.923 278.056C116.723 278.056 117.374 277.805 117.875 277.304C118.387 276.803 118.643 276.099 118.643 275.192V273.352C118.355 273.864 117.929 274.291 117.363 274.632C116.798 274.973 116.137 275.144 115.379 275.144C114.601 275.144 113.891 274.952 113.251 274.568C112.622 274.184 112.126 273.645 111.763 272.952C111.401 272.259 111.219 271.469 111.219 270.584C111.219 269.688 111.401 268.904 111.763 268.232C112.126 267.549 112.622 267.021 113.251 266.648C113.891 266.275 114.601 266.088 115.379 266.088ZM118.643 270.6C118.643 269.939 118.51 269.363 118.243 268.872C117.977 268.381 117.614 268.008 117.155 267.752C116.707 267.485 116.211 267.352 115.667 267.352C115.123 267.352 114.627 267.48 114.179 267.736C113.731 267.992 113.374 268.365 113.107 268.856C112.841 269.347 112.707 269.923 112.707 270.584C112.707 271.256 112.841 271.843 113.107 272.344C113.374 272.835 113.731 273.213 114.179 273.48C114.627 273.736 115.123 273.864 115.667 273.864C116.211 273.864 116.707 273.736 117.155 273.48C117.614 273.213 117.977 272.835 118.243 272.344C118.51 271.843 118.643 271.261 118.643 270.6ZM126.848 266.072C127.914 266.072 128.778 266.397 129.44 267.048C130.101 267.688 130.432 268.616 130.432 269.832V275H128.992V270.04C128.992 269.165 128.773 268.499 128.336 268.04C127.898 267.571 127.301 267.336 126.544 267.336C125.776 267.336 125.162 267.576 124.704 268.056C124.256 268.536 124.032 269.235 124.032 270.152V275H122.576V266.232H124.032V267.48C124.32 267.032 124.709 266.685 125.2 266.44C125.701 266.195 126.25 266.072 126.848 266.072Z" fill="#9F9F9F"/>
<path d="M86.824 328.848V340H85.368V334.944H79.688V340H78.232V328.848H79.688V333.744H85.368V328.848H86.824ZM88.7661 335.584C88.7661 334.688 88.9475 333.904 89.3101 333.232C89.6728 332.549 90.1688 332.021 90.7981 331.648C91.4381 331.275 92.1475 331.088 92.9261 331.088C93.6941 331.088 94.3608 331.253 94.9261 331.584C95.4915 331.915 95.9128 332.331 96.1901 332.832V331.232H97.6621V340H96.1901V338.368C95.9021 338.88 95.4701 339.307 94.8941 339.648C94.3288 339.979 93.6675 340.144 92.9101 340.144C92.1315 340.144 91.4275 339.952 90.7981 339.568C90.1688 339.184 89.6728 338.645 89.3101 337.952C88.9475 337.259 88.7661 336.469 88.7661 335.584ZM96.1901 335.6C96.1901 334.939 96.0568 334.363 95.7901 333.872C95.5235 333.381 95.1608 333.008 94.7021 332.752C94.2541 332.485 93.7581 332.352 93.2141 332.352C92.6701 332.352 92.1741 332.48 91.7261 332.736C91.2781 332.992 90.9208 333.365 90.6541 333.856C90.3875 334.347 90.2541 334.923 90.2541 335.584C90.2541 336.256 90.3875 336.843 90.6541 337.344C90.9208 337.835 91.2781 338.213 91.7261 338.48C92.1741 338.736 92.6701 338.864 93.2141 338.864C93.7581 338.864 94.2541 338.736 94.7021 338.48C95.1608 338.213 95.5235 337.835 95.7901 337.344C96.0568 336.843 96.1901 336.261 96.1901 335.6ZM104.395 331.072C105.461 331.072 106.325 331.397 106.987 332.048C107.648 332.688 107.979 333.616 107.979 334.832V340H106.539V335.04C106.539 334.165 106.32 333.499 105.883 333.04C105.445 332.571 104.848 332.336 104.091 332.336C103.323 332.336 102.709 332.576 102.251 333.056C101.803 333.536 101.579 334.235 101.579 335.152V340H100.123V331.232H101.579V332.48C101.867 332.032 102.256 331.685 102.747 331.44C103.248 331.195 103.797 331.072 104.395 331.072ZM109.813 335.584C109.813 334.688 109.994 333.904 110.357 333.232C110.72 332.549 111.216 332.021 111.845 331.648C112.485 331.275 113.2 331.088 113.989 331.088C114.672 331.088 115.306 331.248 115.893 331.568C116.48 331.877 116.928 332.288 117.237 332.8V328.16H118.709V340H117.237V338.352C116.949 338.875 116.522 339.307 115.957 339.648C115.392 339.979 114.73 340.144 113.973 340.144C113.194 340.144 112.485 339.952 111.845 339.568C111.216 339.184 110.72 338.645 110.357 337.952C109.994 337.259 109.813 336.469 109.813 335.584ZM117.237 335.6C117.237 334.939 117.104 334.363 116.837 333.872C116.57 333.381 116.208 333.008 115.749 332.752C115.301 332.485 114.805 332.352 114.261 332.352C113.717 332.352 113.221 332.48 112.773 332.736C112.325 332.992 111.968 333.365 111.701 333.856C111.434 334.347 111.301 334.923 111.301 335.584C111.301 336.256 111.434 336.843 111.701 337.344C111.968 337.835 112.325 338.213 112.773 338.48C113.221 338.736 113.717 338.864 114.261 338.864C114.805 338.864 115.301 338.736 115.749 338.48C116.208 338.213 116.57 337.835 116.837 337.344C117.104 336.843 117.237 336.261 117.237 335.6ZM131.714 331.072C132.396 331.072 133.004 331.216 133.538 331.504C134.071 331.781 134.492 332.203 134.802 332.768C135.111 333.333 135.266 334.021 135.266 334.832V340H133.826V335.04C133.826 334.165 133.607 333.499 133.17 333.04C132.743 332.571 132.162 332.336 131.426 332.336C130.668 332.336 130.066 332.581 129.618 333.072C129.17 333.552 128.946 334.251 128.946 335.168V340H127.506V335.04C127.506 334.165 127.287 333.499 126.85 333.04C126.423 332.571 125.842 332.336 125.106 332.336C124.348 332.336 123.746 332.581 123.298 333.072C122.85 333.552 122.626 334.251 122.626 335.168V340H121.17V331.232H122.626V332.496C122.914 332.037 123.298 331.685 123.778 331.44C124.268 331.195 124.807 331.072 125.394 331.072C126.13 331.072 126.78 331.237 127.346 331.568C127.911 331.899 128.332 332.384 128.61 333.024C128.855 332.405 129.26 331.925 129.826 331.584C130.391 331.243 131.02 331.072 131.714 331.072ZM137.11 335.584C137.11 334.688 137.291 333.904 137.654 333.232C138.017 332.549 138.513 332.021 139.142 331.648C139.782 331.275 140.491 331.088 141.27 331.088C142.038 331.088 142.705 331.253 143.27 331.584C143.835 331.915 144.257 332.331 144.534 332.832V331.232H146.006V340H144.534V338.368C144.246 338.88 143.814 339.307 143.238 339.648C142.673 339.979 142.011 340.144 141.254 340.144C140.475 340.144 139.771 339.952 139.142 339.568C138.513 339.184 138.017 338.645 137.654 337.952C137.291 337.259 137.11 336.469 137.11 335.584ZM144.534 335.6C144.534 334.939 144.401 334.363 144.134 333.872C143.867 333.381 143.505 333.008 143.046 332.752C142.598 332.485 142.102 332.352 141.558 332.352C141.014 332.352 140.518 332.48 140.07 332.736C139.622 332.992 139.265 333.365 138.998 333.856C138.731 334.347 138.598 334.923 138.598 335.584C138.598 336.256 138.731 336.843 138.998 337.344C139.265 337.835 139.622 338.213 140.07 338.48C140.518 338.736 141.014 338.864 141.558 338.864C142.102 338.864 142.598 338.736 143.046 338.48C143.505 338.213 143.867 337.835 144.134 337.344C144.401 336.843 144.534 336.261 144.534 335.6ZM147.922 335.584C147.922 334.688 148.104 333.904 148.466 333.232C148.829 332.549 149.325 332.021 149.954 331.648C150.594 331.275 151.309 331.088 152.098 331.088C152.781 331.088 153.416 331.248 154.002 331.568C154.589 331.877 155.037 332.288 155.346 332.8V328.16H156.818V340H155.346V338.352C155.058 338.875 154.632 339.307 154.066 339.648C153.501 339.979 152.84 340.144 152.082 340.144C151.304 340.144 150.594 339.952 149.954 339.568C149.325 339.184 148.829 338.645 148.466 337.952C148.104 337.259 147.922 336.469 147.922 335.584ZM155.346 335.6C155.346 334.939 155.213 334.363 154.946 333.872C154.68 333.381 154.317 333.008 153.858 332.752C153.41 332.485 152.914 332.352 152.37 332.352C151.826 332.352 151.33 332.48 150.882 332.736C150.434 332.992 150.077 333.365 149.81 333.856C149.544 334.347 149.41 334.923 149.41 335.584C149.41 336.256 149.544 336.843 149.81 337.344C150.077 337.835 150.434 338.213 150.882 338.48C151.33 338.736 151.826 338.864 152.37 338.864C152.914 338.864 153.41 338.736 153.858 338.48C154.317 338.213 154.68 337.835 154.946 337.344C155.213 336.843 155.346 336.261 155.346 335.6ZM167.279 335.28C167.279 335.557 167.263 335.851 167.231 336.16H160.223C160.276 337.024 160.57 337.701 161.103 338.192C161.647 338.672 162.303 338.912 163.071 338.912C163.7 338.912 164.223 338.768 164.639 338.48C165.066 338.181 165.364 337.787 165.535 337.296H167.103C166.868 338.139 166.399 338.827 165.695 339.36C164.991 339.883 164.116 340.144 163.071 340.144C162.239 340.144 161.492 339.957 160.831 339.584C160.18 339.211 159.668 338.683 159.295 338C158.922 337.307 158.735 336.507 158.735 335.6C158.735 334.693 158.916 333.899 159.279 333.216C159.642 332.533 160.148 332.011 160.799 331.648C161.46 331.275 162.218 331.088 163.071 331.088C163.903 331.088 164.639 331.269 165.279 331.632C165.919 331.995 166.41 332.496 166.751 333.136C167.103 333.765 167.279 334.48 167.279 335.28ZM165.775 334.976C165.775 334.421 165.652 333.947 165.407 333.552C165.162 333.147 164.826 332.843 164.399 332.64C163.983 332.427 163.519 332.32 163.007 332.32C162.271 332.32 161.642 332.555 161.119 333.024C160.607 333.493 160.314 334.144 160.239 334.976H165.775Z" fill="#9F9F9F"/>
<path d="M79.688 393.848V405H78.232V393.848H79.688ZM86.4415 396.072C87.5082 396.072 88.3722 396.397 89.0335 397.048C89.6948 397.688 90.0255 398.616 90.0255 399.832V405H88.5855V400.04C88.5855 399.165 88.3668 398.499 87.9295 398.04C87.4922 397.571 86.8948 397.336 86.1375 397.336C85.3695 397.336 84.7562 397.576 84.2975 398.056C83.8495 398.536 83.6255 399.235 83.6255 400.152V405H82.1695V396.232H83.6255V397.48C83.9135 397.032 84.3028 396.685 84.7935 396.44C85.2948 396.195 85.8442 396.072 86.4415 396.072ZM94.1799 397.432V402.6C94.1799 403.027 94.2705 403.331 94.4519 403.512C94.6332 403.683 94.9479 403.768 95.3959 403.768H96.4679V405H95.1559C94.3452 405 93.7372 404.813 93.3319 404.44C92.9265 404.067 92.7239 403.453 92.7239 402.6V397.432H91.5879V396.232H92.7239V394.024H94.1799V396.232H96.4679V397.432H94.1799ZM106.232 400.28C106.232 400.557 106.216 400.851 106.184 401.16H99.176C99.2293 402.024 99.5227 402.701 100.056 403.192C100.6 403.672 101.256 403.912 102.024 403.912C102.653 403.912 103.176 403.768 103.592 403.48C104.019 403.181 104.317 402.787 104.488 402.296H106.056C105.821 403.139 105.352 403.827 104.648 404.36C103.944 404.883 103.069 405.144 102.024 405.144C101.192 405.144 100.445 404.957 99.784 404.584C99.1333 404.211 98.6213 403.683 98.248 403C97.8747 402.307 97.688 401.507 97.688 400.6C97.688 399.693 97.8693 398.899 98.232 398.216C98.5947 397.533 99.1013 397.011 99.752 396.648C100.413 396.275 101.171 396.088 102.024 396.088C102.856 396.088 103.592 396.269 104.232 396.632C104.872 396.995 105.363 397.496 105.704 398.136C106.056 398.765 106.232 399.48 106.232 400.28ZM104.728 399.976C104.728 399.421 104.605 398.947 104.36 398.552C104.115 398.147 103.779 397.843 103.352 397.64C102.936 397.427 102.472 397.32 101.96 397.32C101.224 397.32 100.595 397.555 100.072 398.024C99.56 398.493 99.2667 399.144 99.192 399.976H104.728ZM109.61 397.656C109.866 397.155 110.229 396.765 110.698 396.488C111.178 396.211 111.759 396.072 112.442 396.072V397.576H112.058C110.426 397.576 109.61 398.461 109.61 400.232V405H108.154V396.232H109.61V397.656ZM114.875 394.808C114.597 394.808 114.363 394.712 114.171 394.52C113.979 394.328 113.883 394.093 113.883 393.816C113.883 393.539 113.979 393.304 114.171 393.112C114.363 392.92 114.597 392.824 114.875 392.824C115.141 392.824 115.365 392.92 115.547 393.112C115.739 393.304 115.835 393.539 115.835 393.816C115.835 394.093 115.739 394.328 115.547 394.52C115.365 394.712 115.141 394.808 114.875 394.808ZM115.579 396.232V405H114.123V396.232H115.579ZM121.884 405.144C121.063 405.144 120.316 404.957 119.644 404.584C118.983 404.211 118.46 403.683 118.076 403C117.703 402.307 117.516 401.507 117.516 400.6C117.516 399.704 117.708 398.915 118.092 398.232C118.487 397.539 119.02 397.011 119.692 396.648C120.364 396.275 121.116 396.088 121.948 396.088C122.78 396.088 123.532 396.275 124.204 396.648C124.876 397.011 125.404 397.533 125.788 398.216C126.183 398.899 126.38 399.693 126.38 400.6C126.38 401.507 126.177 402.307 125.772 403C125.377 403.683 124.839 404.211 124.156 404.584C123.473 404.957 122.716 405.144 121.884 405.144ZM121.884 403.864C122.407 403.864 122.897 403.741 123.356 403.496C123.815 403.251 124.183 402.883 124.46 402.392C124.748 401.901 124.892 401.304 124.892 400.6C124.892 399.896 124.753 399.299 124.476 398.808C124.199 398.317 123.836 397.955 123.388 397.72C122.94 397.475 122.455 397.352 121.932 397.352C121.399 397.352 120.908 397.475 120.46 397.72C120.023 397.955 119.671 398.317 119.404 398.808C119.137 399.299 119.004 399.896 119.004 400.6C119.004 401.315 119.132 401.917 119.388 402.408C119.655 402.899 120.007 403.267 120.444 403.512C120.881 403.747 121.361 403.864 121.884 403.864ZM129.751 397.656C130.007 397.155 130.369 396.765 130.839 396.488C131.319 396.211 131.9 396.072 132.583 396.072V397.576H132.199C130.567 397.576 129.751 398.461 129.751 400.232V405H128.295V396.232H129.751V397.656Z" fill="#9F9F9F"/>
<path d="M92.248 458.848L89.016 470H87.384L84.792 461.024L82.104 470L80.488 470.016L77.368 458.848H78.92L81.352 468.304L84.04 458.848H85.672L88.232 468.272L90.68 458.848H92.248ZM97.6654 470.144C96.844 470.144 96.0974 469.957 95.4254 469.584C94.764 469.211 94.2414 468.683 93.8574 468C93.484 467.307 93.2974 466.507 93.2974 465.6C93.2974 464.704 93.4894 463.915 93.8734 463.232C94.268 462.539 94.8014 462.011 95.4734 461.648C96.1454 461.275 96.8974 461.088 97.7294 461.088C98.5614 461.088 99.3134 461.275 99.9854 461.648C100.657 462.011 101.185 462.533 101.569 463.216C101.964 463.899 102.161 464.693 102.161 465.6C102.161 466.507 101.959 467.307 101.553 468C101.159 468.683 100.62 469.211 99.9374 469.584C99.2547 469.957 98.4974 470.144 97.6654 470.144ZM97.6654 468.864C98.188 468.864 98.6787 468.741 99.1374 468.496C99.596 468.251 99.964 467.883 100.241 467.392C100.529 466.901 100.673 466.304 100.673 465.6C100.673 464.896 100.535 464.299 100.257 463.808C99.98 463.317 99.6174 462.955 99.1694 462.72C98.7214 462.475 98.236 462.352 97.7134 462.352C97.18 462.352 96.6894 462.475 96.2414 462.72C95.804 462.955 95.452 463.317 95.1854 463.808C94.9187 464.299 94.7854 464.896 94.7854 465.6C94.7854 466.315 94.9134 466.917 95.1694 467.408C95.436 467.899 95.788 468.267 96.2254 468.512C96.6627 468.747 97.1427 468.864 97.6654 468.864ZM107.9 470.144C107.078 470.144 106.332 469.957 105.66 469.584C104.998 469.211 104.476 468.683 104.092 468C103.718 467.307 103.532 466.507 103.532 465.6C103.532 464.704 103.724 463.915 104.108 463.232C104.502 462.539 105.036 462.011 105.708 461.648C106.38 461.275 107.132 461.088 107.964 461.088C108.796 461.088 109.548 461.275 110.22 461.648C110.892 462.011 111.42 462.533 111.804 463.216C112.198 463.899 112.396 464.693 112.396 465.6C112.396 466.507 112.193 467.307 111.788 468C111.393 468.683 110.854 469.211 110.172 469.584C109.489 469.957 108.732 470.144 107.9 470.144ZM107.9 468.864C108.422 468.864 108.913 468.741 109.372 468.496C109.83 468.251 110.198 467.883 110.476 467.392C110.764 466.901 110.908 466.304 110.908 465.6C110.908 464.896 110.769 464.299 110.492 463.808C110.214 463.317 109.852 462.955 109.404 462.72C108.956 462.475 108.47 462.352 107.948 462.352C107.414 462.352 106.924 462.475 106.476 462.72C106.038 462.955 105.686 463.317 105.42 463.808C105.153 464.299 105.02 464.896 105.02 465.6C105.02 466.315 105.148 466.917 105.404 467.408C105.67 467.899 106.022 468.267 106.46 468.512C106.897 468.747 107.377 468.864 107.9 468.864ZM113.766 465.584C113.766 464.688 113.947 463.904 114.31 463.232C114.673 462.549 115.169 462.021 115.798 461.648C116.438 461.275 117.153 461.088 117.942 461.088C118.625 461.088 119.259 461.248 119.846 461.568C120.433 461.877 120.881 462.288 121.19 462.8V458.16H122.662V470H121.19V468.352C120.902 468.875 120.475 469.307 119.91 469.648C119.345 469.979 118.683 470.144 117.926 470.144C117.147 470.144 116.438 469.952 115.798 469.568C115.169 469.184 114.673 468.645 114.31 467.952C113.947 467.259 113.766 466.469 113.766 465.584ZM121.19 465.6C121.19 464.939 121.057 464.363 120.79 463.872C120.523 463.381 120.161 463.008 119.702 462.752C119.254 462.485 118.758 462.352 118.214 462.352C117.67 462.352 117.174 462.48 116.726 462.736C116.278 462.992 115.921 463.365 115.654 463.856C115.387 464.347 115.254 464.923 115.254 465.584C115.254 466.256 115.387 466.843 115.654 467.344C115.921 467.835 116.278 468.213 116.726 468.48C117.174 468.736 117.67 468.864 118.214 468.864C118.758 468.864 119.254 468.736 119.702 468.48C120.161 468.213 120.523 467.835 120.79 467.344C121.057 466.843 121.19 466.261 121.19 465.6Z" fill="#9F9F9F"/>
<path d="M317.816 208.832C319.171 207.744 320.232 206.853 321 206.16C321.768 205.456 322.413 204.725 322.936 203.968C323.469 203.2 323.736 202.448 323.736 201.712C323.736 201.019 323.565 200.475 323.224 200.08C322.893 199.675 322.355 199.472 321.608 199.472C320.883 199.472 320.317 199.701 319.912 200.16C319.517 200.608 319.304 201.211 319.272 201.968H317.864C317.907 200.773 318.269 199.851 318.952 199.2C319.635 198.549 320.515 198.224 321.592 198.224C322.691 198.224 323.56 198.528 324.2 199.136C324.851 199.744 325.176 200.581 325.176 201.648C325.176 202.533 324.909 203.397 324.376 204.24C323.853 205.072 323.256 205.808 322.584 206.448C321.912 207.077 321.053 207.813 320.008 208.656H325.512V209.872H317.816V208.832Z" fill="#9F9F9F"/>
<path d="M320.104 268.984C319.507 268.749 319.048 268.408 318.728 267.96C318.408 267.512 318.248 266.968 318.248 266.328C318.248 265.752 318.392 265.235 318.68 264.776C318.968 264.307 319.395 263.939 319.96 263.672C320.536 263.395 321.229 263.256 322.04 263.256C322.851 263.256 323.539 263.395 324.104 263.672C324.68 263.939 325.112 264.307 325.4 264.776C325.699 265.235 325.848 265.752 325.848 266.328C325.848 266.947 325.683 267.491 325.352 267.96C325.021 268.419 324.568 268.76 323.992 268.984C324.653 269.187 325.176 269.544 325.56 270.056C325.955 270.557 326.152 271.165 326.152 271.88C326.152 272.573 325.981 273.181 325.64 273.704C325.299 274.216 324.813 274.616 324.184 274.904C323.565 275.181 322.851 275.32 322.04 275.32C321.229 275.32 320.515 275.181 319.896 274.904C319.288 274.616 318.813 274.216 318.472 273.704C318.131 273.181 317.96 272.573 317.96 271.88C317.96 271.165 318.152 270.552 318.536 270.04C318.92 269.528 319.443 269.176 320.104 268.984ZM324.44 266.504C324.44 265.853 324.227 265.352 323.8 265C323.373 264.648 322.787 264.472 322.04 264.472C321.304 264.472 320.723 264.648 320.296 265C319.869 265.352 319.656 265.859 319.656 266.52C319.656 267.117 319.875 267.597 320.312 267.96C320.76 268.323 321.336 268.504 322.04 268.504C322.755 268.504 323.331 268.323 323.768 267.96C324.216 267.587 324.44 267.101 324.44 266.504ZM322.04 269.624C321.251 269.624 320.605 269.811 320.104 270.184C319.603 270.547 319.352 271.096 319.352 271.832C319.352 272.515 319.592 273.064 320.072 273.48C320.563 273.896 321.219 274.104 322.04 274.104C322.861 274.104 323.512 273.896 323.992 273.48C324.472 273.064 324.712 272.515 324.712 271.832C324.712 271.117 324.467 270.573 323.976 270.2C323.485 269.816 322.84 269.624 322.04 269.624Z" fill="#9F9F9F"/>
<path d="M325.112 329.568L320.664 340H319.192L323.704 329.712H317.528V328.464H325.112V329.568Z" fill="#9F9F9F"/>
<path d="M317.608 394.76V393.432H320.616V405H319.144V394.76H317.608Z" fill="#9F9F9F"/>
<path d="M324.44 461.184C324.205 460 323.475 459.408 322.248 459.408C321.299 459.408 320.589 459.776 320.12 460.512C319.651 461.237 319.421 462.437 319.432 464.112C319.677 463.557 320.083 463.125 320.648 462.816C321.224 462.496 321.864 462.336 322.568 462.336C323.667 462.336 324.541 462.677 325.192 463.36C325.853 464.043 326.184 464.987 326.184 466.192C326.184 466.917 326.04 467.568 325.752 468.144C325.475 468.72 325.048 469.179 324.472 469.52C323.907 469.861 323.219 470.032 322.408 470.032C321.309 470.032 320.451 469.787 319.832 469.296C319.213 468.805 318.781 468.128 318.536 467.264C318.291 466.4 318.168 465.333 318.168 464.064C318.168 460.149 319.533 458.192 322.264 458.192C323.309 458.192 324.131 458.475 324.728 459.04C325.325 459.605 325.677 460.32 325.784 461.184H324.44ZM322.264 463.568C321.805 463.568 321.373 463.664 320.968 463.856C320.563 464.037 320.232 464.32 319.976 464.704C319.731 465.077 319.608 465.536 319.608 466.08C319.608 466.891 319.843 467.552 320.312 468.064C320.781 468.565 321.453 468.816 322.328 468.816C323.075 468.816 323.667 468.587 324.104 468.128C324.552 467.659 324.776 467.029 324.776 466.24C324.776 465.408 324.563 464.757 324.136 464.288C323.709 463.808 323.085 463.568 322.264 463.568Z" fill="#9F9F9F"/>
<rect x="41.5" y="22.5" width="310" height="57" rx="9.5" fill="white" stroke="#9F9F9F"/>
<path d="M339 60L334.514 55.506M337 49.5C337 51.7543 336.104 53.9163 334.51 55.5104C332.916 57.1045 330.754 58 328.5 58C326.246 58 324.084 57.1045 322.49 55.5104C320.896 53.9163 320 51.7543 320 49.5C320 47.2457 320.896 45.0837 322.49 43.4896C324.084 41.8955 326.246 41 328.5 41C330.754 41 332.916 41.8955 334.51 43.4896C336.104 45.0837 337 47.2457 337 49.5V49.5Z" stroke="black" stroke-width="2" stroke-linecap="round"/>
</svg>
